<svg width="22" height="15" viewBox="0 0 22 15" fill="none" xmlns="http://www.w3.org/2000/svg">
<path d="M1 6.36377C0.447715 6.36377 0 6.81148 0 7.36377C0 7.91605 0.447715 8.36377 1 8.36377V7.36377V6.36377ZM21.7071 8.07088C22.0976 7.68035 22.0976 7.04719 21.7071 6.65666L15.3431 0.292702C14.9526 -0.0978227 14.3195 -0.0978227 13.9289 0.292702C13.5384 0.683226 13.5384 1.31639 13.9289 1.70692L19.5858 7.36377L13.9289 13.0206C13.5384 13.4111 13.5384 14.0443 13.9289 14.4348C14.3195 14.8254 14.9526 14.8254 15.3431 14.4348L21.7071 8.07088ZM1 7.36377V8.36377H21V7.36377V6.36377H1V7.36377Z" fill="#333333"/>
</svg>
